# xmcd
#
# Track frame offsets: 
#        150
#        16437
#        56852
#        69376
#        83058
#        96179
#        110698
#        125702
#        139459
#        154694
#        163985
#        185547
#        199078
#        225249
#        238900
#        255908
#        268596
#        282308
#        295347
#        338701
#
# Disc length: 4709 seconds
#
# Revision: 3
# Processed by: cddbd v1.5.1PL0 Copyright (c) Steve Scherf et al.
# Submitted via: ExactAudioCopy v0.95a5
#
DISCID=2d126314
DTITLE=Various Artist - Essential Jazz [CD2]
DYEAR=2002
DGENRE=Jazz
TTITLE0=Jacques Loussier - Air On A G String
TTITLE1=Wynton Marsalis - My Funny Valentine
TTITLE2=Frank Sinatra - Saturday Night
TTITLE3=Miles Davis - Whispering
TTITLE4=Nat 'King' Cole - It's Only A Paper Moon
TTITLE5=Artie Shaw - Begin The Beguine
TTITLE6=Lester Young - She's Funny That Way
TTITLE7=Louis Armstrong and Ella Fitzgerald - Dream A Little Dream Of Me
TTITLE8=Glenn Miller - American Patrol
TTITLE9=Al Jarreau - Ain't No Sunshine
TTITLE10=The Keiles Jazz Band - Black Orpheus
TTITLE11=Dinah Washington - Mixed Emotions
TTITLE12=Herbie Hancock - Herbie's Blues
TTITLE13=Charlie Parker - Parker's Mood
TTITLE14=Buddy Greco - Love Won't Let Me Wait
TTITLE15=Stan Kenton - Opus In Pastels
TTITLE16=Oscar Peterson - A Ghost Of A Chance
TTITLE17=Billie Holiday - That Ole Devil Called Love
TTITLE18=Chick Corea - Sea Breeze
TTITLE19=Sarah Vaughan - It Might As Well Be Spring
EXTD=YEAR: 2002
EXTT0=
EXTT1=
EXTT2=
EXTT3=
EXTT4=
EXTT5=
EXTT6=
EXTT7=
EXTT8=
EXTT9=
EXTT10=
EXTT11=
EXTT12=
EXTT13=
EXTT14=
EXTT15=
EXTT16=
EXTT17=
EXTT18=
EXTT19=
PLAYORDER=
